<mxfile host="www.draw.io" modified="2019-11-14T14:16:18.118Z" agent="Mozilla/5.0 (Windows NT 10.0; Win64; x64) AppleWebKit/537.36 (KHTML, like Gecko) Chrome/78.0.3904.70 Safari/537.36" etag="nk7xaDgXWzTXES8XvXVg" version="12.2.6" type="github" pages="1">
  <diagram id="MwoShXv7jQLjujggLV_c" name="Page-1">
    <mxGraphModel dx="768" dy="724" grid="1" gridSize="10" guides="1" tooltips="1" connect="1" arrows="1" fold="1" page="1" pageScale="1" pageWidth="850" pageHeight="1100" math="0" shadow="0">
      <root>
        <mxCell id="0"/>
        <mxCell id="1" parent="0"/>
        <mxCell id="_BS7B_x0S_EDMenffGN3-11" value="O API ou embalagem está dentro da validade?" style="strokeWidth=2;shape=mxgraph.flowchart.decision;verticalAlign=middle;labelPosition=center;verticalLabelPosition=middle;align=center;whiteSpace=wrap;html=1;fontSize=10;labelBackgroundColor=none;labelBorderColor=none;" vertex="1" parent="1">
          <mxGeometry x="670" y="225" width="150" height="100" as="geometry"/>
        </mxCell>
        <mxCell id="_BS7B_x0S_EDMenffGN3-18" style="edgeStyle=orthogonalEdgeStyle;rounded=0;orthogonalLoop=1;jettySize=auto;html=1;fontSize=10;entryX=0.5;entryY=0;entryDx=0;entryDy=0;exitX=0.5;exitY=1;exitDx=0;exitDy=0;exitPerimeter=0;" edge="1" parent="1" source="_BS7B_x0S_EDMenffGN3-11" target="_BS7B_x0S_EDMenffGN3-39">
          <mxGeometry relative="1" as="geometry">
            <mxPoint x="530" y="310" as="targetPoint"/>
            <Array as="points">
              <mxPoint x="745" y="410"/>
            </Array>
          </mxGeometry>
        </mxCell>
        <mxCell id="_BS7B_x0S_EDMenffGN3-28" value="" style="edgeStyle=orthogonalEdgeStyle;rounded=0;orthogonalLoop=1;jettySize=auto;html=1;fontSize=16;exitX=1;exitY=0.5;exitDx=0;exitDy=0;exitPerimeter=0;" edge="1" parent="1" source="_BS7B_x0S_EDMenffGN3-11" target="_BS7B_x0S_EDMenffGN3-30">
          <mxGeometry relative="1" as="geometry">
            <mxPoint x="899" y="240" as="targetPoint"/>
          </mxGeometry>
        </mxCell>
        <mxCell id="_BS7B_x0S_EDMenffGN3-5" style="edgeStyle=orthogonalEdgeStyle;rounded=0;orthogonalLoop=1;jettySize=auto;html=1;entryX=0.557;entryY=-0.025;entryDx=0;entryDy=0;entryPerimeter=0;" edge="1" parent="1" source="9XUinUo9Wm95Iz5dZyXL-1" target="_BS7B_x0S_EDMenffGN3-1">
          <mxGeometry relative="1" as="geometry"/>
        </mxCell>
        <mxCell id="_BS7B_x0S_EDMenffGN3-7" style="edgeStyle=orthogonalEdgeStyle;rounded=0;orthogonalLoop=1;jettySize=auto;html=1;entryX=0.586;entryY=-0.075;entryDx=0;entryDy=0;entryPerimeter=0;" edge="1" parent="1" target="_BS7B_x0S_EDMenffGN3-3">
          <mxGeometry relative="1" as="geometry">
            <mxPoint x="420" y="60" as="sourcePoint"/>
            <Array as="points">
              <mxPoint x="502" y="60"/>
            </Array>
          </mxGeometry>
        </mxCell>
        <mxCell id="_BS7B_x0S_EDMenffGN3-9" style="edgeStyle=orthogonalEdgeStyle;rounded=0;orthogonalLoop=1;jettySize=auto;html=1;" edge="1" parent="1" source="9XUinUo9Wm95Iz5dZyXL-1" target="_BS7B_x0S_EDMenffGN3-4">
          <mxGeometry relative="1" as="geometry"/>
        </mxCell>
        <mxCell id="_BS7B_x0S_EDMenffGN3-10" style="edgeStyle=orthogonalEdgeStyle;rounded=0;orthogonalLoop=1;jettySize=auto;html=1;entryX=0.5;entryY=0;entryDx=0;entryDy=0;exitX=0;exitY=0.5;exitDx=0;exitDy=0;exitPerimeter=0;" edge="1" parent="1" source="9XUinUo9Wm95Iz5dZyXL-1" target="_BS7B_x0S_EDMenffGN3-2">
          <mxGeometry relative="1" as="geometry"/>
        </mxCell>
        <mxCell id="9XUinUo9Wm95Iz5dZyXL-1" value="&lt;font style=&quot;font-size: 10px&quot;&gt;ATUALIZAÇÃO DO POWER BI&lt;/font&gt;" style="strokeWidth=2;html=1;shape=mxgraph.flowchart.start_2;whiteSpace=wrap;" parent="1" vertex="1">
          <mxGeometry x="330" y="20" width="90" height="80" as="geometry"/>
        </mxCell>
        <mxCell id="_BS7B_x0S_EDMenffGN3-1" value="&lt;font style=&quot;font-size: 10px&quot;&gt;MATÉRIA-PRIMA&lt;/font&gt;" style="shape=parallelogram;html=1;strokeWidth=2;perimeter=parallelogramPerimeter;whiteSpace=wrap;rounded=1;arcSize=12;size=0.23;" vertex="1" parent="1">
          <mxGeometry x="10" y="150" width="140" height="40" as="geometry"/>
        </mxCell>
        <mxCell id="_BS7B_x0S_EDMenffGN3-2" value="&lt;font style=&quot;font-size: 10px&quot;&gt;PX INTERNO&lt;/font&gt;" style="shape=parallelogram;html=1;strokeWidth=2;perimeter=parallelogramPerimeter;whiteSpace=wrap;rounded=1;arcSize=12;size=0.23;" vertex="1" parent="1">
          <mxGeometry x="200" y="150" width="140" height="40" as="geometry"/>
        </mxCell>
        <mxCell id="_BS7B_x0S_EDMenffGN3-43" style="edgeStyle=orthogonalEdgeStyle;rounded=0;orthogonalLoop=1;jettySize=auto;html=1;entryX=0.5;entryY=0;entryDx=0;entryDy=0;entryPerimeter=0;fontSize=16;" edge="1" parent="1" source="_BS7B_x0S_EDMenffGN3-3" target="_BS7B_x0S_EDMenffGN3-36">
          <mxGeometry relative="1" as="geometry">
            <Array as="points">
              <mxPoint x="490" y="335"/>
            </Array>
          </mxGeometry>
        </mxCell>
        <mxCell id="_BS7B_x0S_EDMenffGN3-3" value="&lt;font style=&quot;font-size: 10px&quot;&gt;EMBALAGEM&lt;/font&gt;" style="shape=parallelogram;html=1;strokeWidth=2;perimeter=parallelogramPerimeter;whiteSpace=wrap;rounded=1;arcSize=12;size=0.23;" vertex="1" parent="1">
          <mxGeometry x="420" y="150" width="140" height="40" as="geometry"/>
        </mxCell>
        <mxCell id="_BS7B_x0S_EDMenffGN3-15" style="edgeStyle=orthogonalEdgeStyle;rounded=0;orthogonalLoop=1;jettySize=auto;html=1;entryX=0.5;entryY=0;entryDx=0;entryDy=0;entryPerimeter=0;fontSize=10;" edge="1" parent="1" source="_BS7B_x0S_EDMenffGN3-4" target="_BS7B_x0S_EDMenffGN3-11">
          <mxGeometry relative="1" as="geometry"/>
        </mxCell>
        <mxCell id="_BS7B_x0S_EDMenffGN3-4" value="&lt;font style=&quot;font-size: 10px&quot;&gt;API&#39;S E EMBALAGENS &lt;br&gt;ELANCO&lt;/font&gt;" style="shape=parallelogram;html=1;strokeWidth=2;perimeter=parallelogramPerimeter;whiteSpace=wrap;rounded=1;arcSize=12;size=0.23;" vertex="1" parent="1">
          <mxGeometry x="665" y="120" width="160" height="40" as="geometry"/>
        </mxCell>
        <mxCell id="_BS7B_x0S_EDMenffGN3-35" value="" style="edgeStyle=orthogonalEdgeStyle;rounded=0;orthogonalLoop=1;jettySize=auto;html=1;fontSize=16;entryX=0;entryY=0.5;entryDx=0;entryDy=0;" edge="1" parent="1" source="_BS7B_x0S_EDMenffGN3-30" target="_BS7B_x0S_EDMenffGN3-34">
          <mxGeometry relative="1" as="geometry"/>
        </mxCell>
        <mxCell id="_BS7B_x0S_EDMenffGN3-30" value="Não" style="text;html=1;strokeColor=none;fillColor=none;align=center;verticalAlign=middle;whiteSpace=wrap;rounded=0;labelBackgroundColor=#FF9999;fontSize=16;labelBorderColor=#000000;fontStyle=1" vertex="1" parent="1">
          <mxGeometry x="870" y="260" width="77" height="30" as="geometry"/>
        </mxCell>
        <mxCell id="_BS7B_x0S_EDMenffGN3-34" value="&lt;font style=&quot;font-size: 10px&quot;&gt;Revalidação Elanco&lt;/font&gt;" style="rounded=1;whiteSpace=wrap;html=1;absoluteArcSize=1;arcSize=14;strokeWidth=2;labelBackgroundColor=none;fontSize=16;" vertex="1" parent="1">
          <mxGeometry x="990" y="260" width="100" height="30" as="geometry"/>
        </mxCell>
        <mxCell id="_BS7B_x0S_EDMenffGN3-47" value="" style="edgeStyle=orthogonalEdgeStyle;rounded=0;orthogonalLoop=1;jettySize=auto;html=1;fontSize=16;" edge="1" parent="1" source="_BS7B_x0S_EDMenffGN3-36" target="_BS7B_x0S_EDMenffGN3-49">
          <mxGeometry relative="1" as="geometry">
            <mxPoint x="490" y="410" as="targetPoint"/>
          </mxGeometry>
        </mxCell>
        <mxCell id="_BS7B_x0S_EDMenffGN3-51" value="" style="edgeStyle=orthogonalEdgeStyle;rounded=0;orthogonalLoop=1;jettySize=auto;html=1;fontSize=16;" edge="1" parent="1" source="_BS7B_x0S_EDMenffGN3-36" target="_BS7B_x0S_EDMenffGN3-52">
          <mxGeometry relative="1" as="geometry">
            <mxPoint x="325" y="290" as="targetPoint"/>
          </mxGeometry>
        </mxCell>
        <mxCell id="_BS7B_x0S_EDMenffGN3-36" value="A embalagem está dentro da validade?" style="strokeWidth=2;shape=mxgraph.flowchart.decision;verticalAlign=middle;labelPosition=center;verticalLabelPosition=middle;align=center;whiteSpace=wrap;html=1;fontSize=10;labelBackgroundColor=none;labelBorderColor=none;" vertex="1" parent="1">
          <mxGeometry x="405" y="250" width="170" height="80" as="geometry"/>
        </mxCell>
        <mxCell id="_BS7B_x0S_EDMenffGN3-39" value="Sim" style="text;html=1;strokeColor=none;fillColor=none;align=center;verticalAlign=middle;whiteSpace=wrap;rounded=0;labelBackgroundColor=#FF9999;fontSize=16;labelBorderColor=#000000;fontStyle=1" vertex="1" parent="1">
          <mxGeometry x="706.5" y="430" width="77" height="30" as="geometry"/>
        </mxCell>
        <mxCell id="_BS7B_x0S_EDMenffGN3-56" value="" style="edgeStyle=orthogonalEdgeStyle;rounded=0;orthogonalLoop=1;jettySize=auto;html=1;fontSize=16;" edge="1" parent="1" source="_BS7B_x0S_EDMenffGN3-49" target="_BS7B_x0S_EDMenffGN3-55">
          <mxGeometry relative="1" as="geometry">
            <Array as="points">
              <mxPoint x="490" y="500"/>
              <mxPoint x="490" y="500"/>
            </Array>
          </mxGeometry>
        </mxCell>
        <mxCell id="_BS7B_x0S_EDMenffGN3-49" value="Não" style="text;html=1;strokeColor=none;fillColor=none;align=center;verticalAlign=middle;whiteSpace=wrap;rounded=0;labelBackgroundColor=#FF9999;fontSize=16;labelBorderColor=#000000;fontStyle=1" vertex="1" parent="1">
          <mxGeometry x="451.5" y="430" width="77" height="30" as="geometry"/>
        </mxCell>
        <mxCell id="_BS7B_x0S_EDMenffGN3-52" value="Sim" style="text;html=1;strokeColor=none;fillColor=none;align=center;verticalAlign=middle;whiteSpace=wrap;rounded=0;labelBackgroundColor=#FF9999;fontSize=16;labelBorderColor=#000000;fontStyle=1" vertex="1" parent="1">
          <mxGeometry x="253" y="275" width="77" height="30" as="geometry"/>
        </mxCell>
        <mxCell id="_BS7B_x0S_EDMenffGN3-55" value="&lt;font style=&quot;font-size: 10px&quot;&gt;Revalidação qualidade&lt;/font&gt;" style="rounded=1;whiteSpace=wrap;html=1;absoluteArcSize=1;arcSize=14;strokeWidth=2;labelBackgroundColor=none;fontSize=16;" vertex="1" parent="1">
          <mxGeometry x="420" y="520" width="130" height="30" as="geometry"/>
        </mxCell>
      </root>
    </mxGraphModel>
  </diagram>
</mxfile>
